<svg width="47" height="44" viewBox="0 0 47 44" fill="none" xmlns="http://www.w3.org/2000/svg">
<path d="M23.0199 37.84C17.2649 37.84 12.1775 35.024 9.20795 30.8C9.27701 26.4 18.4159 23.98 23.0199 23.98C27.6238 23.98 36.7627 26.4 36.8318 30.8C35.3102 32.966 33.2545 34.741 30.8459 35.9687C28.4373 37.1964 25.7496 37.839 23.0199 37.84ZM23.0199 6.6C24.8514 6.6 26.608 7.29536 27.9031 8.5331C29.1982 9.77084 29.9258 11.4496 29.9258 13.2C29.9258 14.9504 29.1982 16.6292 27.9031 17.8669C26.608 19.1046 24.8514 19.8 23.0199 19.8C21.1883 19.8 19.4317 19.1046 18.1366 17.8669C16.8415 16.6292 16.1139 14.9504 16.1139 13.2C16.1139 11.4496 16.8415 9.77084 18.1366 8.5331C19.4317 7.29536 21.1883 6.6 23.0199 6.6ZM23.0199 0C19.9969 0 17.0034 0.569047 14.2105 1.67465C11.4176 2.78025 8.87996 4.40076 6.74236 6.44365C2.4253 10.5695 0 16.1652 0 22C0 27.8348 2.4253 33.4305 6.74236 37.5564C8.87996 39.5992 11.4176 41.2197 14.2105 42.3254C17.0034 43.431 19.9969 44 23.0199 44C29.1251 44 34.9803 41.6822 39.2974 37.5564C43.6144 33.4305 46.0397 27.8348 46.0397 22C46.0397 9.834 35.6808 0 23.0199 0Z" fill="#2F1359"/>
</svg>
