<svg width="31" height="24" viewBox="0 0 31 24" fill="none" xmlns="http://www.w3.org/2000/svg">
<path d="M15.2683 6.83148C15.4542 6.83148 15.6374 6.8388 15.818 6.85342C16.1265 6.87948 16.2377 7.20177 16.02 7.39377L14.1205 9.05594C13.6149 9.20945 13.1556 9.46136 12.7772 9.79274C12.3989 10.1241 12.1112 10.5263 11.9359 10.9691L10.038 12.6326C9.81871 12.8246 9.45071 12.7259 9.42095 12.4557C9.34443 11.7428 9.43872 11.0238 9.69778 10.3447C9.95685 9.66561 10.375 9.04136 10.9254 8.51193C11.4759 7.9825 12.1465 7.55956 12.8943 7.27019C13.6422 6.98082 14.4508 6.83139 15.2683 6.83148Z" fill="#8A38F5" fill-opacity="0.69"/>
<path fill-rule="evenodd" clip-rule="evenodd" d="M28.6262 1.72977C28.8337 1.53479 28.9466 1.2769 28.9412 1.01043C28.9359 0.743956 28.8126 0.489714 28.5974 0.301262C28.3822 0.11281 28.0919 0.0048618 27.7876 0.000160247C27.4834 -0.00454131 27.1889 0.0943705 26.9662 0.276057L1.9105 22.2189C1.79511 22.3131 1.70256 22.4266 1.63837 22.5528C1.57417 22.679 1.53965 22.8152 1.53687 22.9533C1.53409 23.0914 1.5631 23.2286 1.62217 23.3566C1.68124 23.4847 1.76916 23.6011 1.88069 23.6987C1.99222 23.7964 2.12507 23.8734 2.27131 23.9251C2.41755 23.9769 2.5742 24.0023 2.7319 23.9998C2.8896 23.9974 3.04512 23.9672 3.18919 23.911C3.33326 23.8547 3.46292 23.7737 3.57045 23.6726L8.0288 19.7682C10.1695 20.6514 12.6328 21.2315 15.2683 21.2315C19.4714 21.2315 23.2392 19.7545 25.9484 17.9332C27.3061 17.0212 28.4273 16.0036 29.2197 15.0038C29.9902 14.0315 30.5367 12.9659 30.5367 11.9743C30.5367 10.9828 29.9886 9.9172 29.2197 8.94486C28.4273 7.94509 27.3061 6.92886 25.9499 6.01549C25.5386 5.73846 25.1043 5.47194 24.647 5.21594L28.6262 1.72977ZM22.9417 6.70943L20.1683 9.13823C20.916 10.1272 21.2504 11.3121 21.1148 12.4923C20.9792 13.6724 20.382 14.7753 19.4243 15.614C18.4666 16.4527 17.2073 16.9757 15.8598 17.0945C14.5122 17.2132 13.1592 16.9204 12.0299 16.2655L9.81089 18.2075C11.5421 18.8342 13.3951 19.1624 15.2683 19.1743C18.8498 19.1743 22.1274 17.9085 24.5186 16.3012C25.7119 15.4989 26.6546 14.6308 27.2904 13.8313C27.9466 13.0029 28.1877 12.3542 28.1877 11.9743C28.1877 11.5945 27.9466 10.9458 27.2904 10.1174C26.6546 9.31789 25.7119 8.44977 24.5186 7.64749C24.0279 7.31743 23.5033 7.00474 22.9417 6.70943ZM13.7478 14.7597C14.4053 15.0347 15.1439 15.1244 15.8621 15.0165C16.5802 14.9086 17.2425 14.6084 17.7577 14.1572C18.2729 13.706 18.6158 13.126 18.739 12.4971C18.8622 11.8681 18.7597 11.2212 18.4457 10.6454L13.7478 14.7597Z" fill="#8A38F5" fill-opacity="0.69"/>
<path d="M15.2683 2.71719C16.8844 2.71719 18.4379 2.93662 19.8896 3.30828C19.9531 3.32489 20.0106 3.35576 20.0564 3.39782C20.1021 3.43989 20.1345 3.4917 20.1503 3.54811C20.1661 3.60452 20.1648 3.66357 20.1466 3.71941C20.1283 3.77525 20.0937 3.82594 20.0462 3.86645L18.7558 4.99788C18.7082 5.03995 18.6491 5.07052 18.584 5.08662C18.519 5.10273 18.4503 5.10381 18.3847 5.08977C17.3625 4.88339 16.3173 4.77759 15.2683 4.77434C11.6869 4.77434 8.40933 6.04017 6.01808 7.64748C4.8248 8.44977 3.88207 9.31788 3.24628 10.1174C2.59014 10.9458 2.34898 11.5945 2.34898 11.9743C2.34898 12.3542 2.59014 13.0029 3.24628 13.8313C3.80064 14.5307 4.5899 15.2809 5.57647 15.994C5.75812 16.1243 5.77535 16.3643 5.60779 16.511L4.49907 17.4834C4.43117 17.5437 4.33984 17.5794 4.24323 17.5835C4.14662 17.5876 4.05179 17.5597 3.9776 17.5053C2.96912 16.7774 2.07456 15.9364 1.31699 15.0038C0.548094 14.0315 0 12.9659 0 11.9743C0 10.9828 0.548094 9.9172 1.31699 8.94485C2.10938 7.94508 3.23062 6.92885 4.58677 6.01548C7.29748 4.19422 11.0652 2.71719 15.2683 2.71719Z" fill="#8A38F5" fill-opacity="0.69"/>
</svg>
